Storyline
Sean Anderson partners with his mom's boyfriend 
on a mission to find his grandfather, who is thought to be 
missing on a mythical island.

Cast

Dwayne Johnson ... Hank
Josh Hutcherson ... Sean
Kristin Davis ... Liz
Vanessa Anne Hudgens ... Kailani
Luis Guzmán ... Gabato
Michael Caine ... Alexander

Rip information

General

General
Format                                   : Matroska
Format version                           : Version 4 / Version 2
File size                                : 346 MiB
Duration                                 : 1h 34mn
Overall bit rate                         : 513 Kbps
Encoded date                             : UTC 2013-03-03 16:53:42


Video

ID                                       : 1
Format                                   : AVC
Format/Info                              : Advanced Video Codec
Format profile                           : High@L2.1
Format settings, CABAC                   : Yes
Format settings, ReFrames                : 4 frames
Codec ID                                 : V_MPEG4/ISO/AVC
Duration                                 : 1h 34mn
Bit rate                                 : 414 Kbps
Width                                    : 640 pixels
Height                                   : 272 pixels
Display aspect ratio                     : 16:9
Original display aspect ratio            : 16:9
Frame rate mode                          : Constant
Frame rate                               : 23.976 fps
Color space                              : YUV
Chroma subsampling                       : 4:2:0
Bit depth                                : 8 bits
Scan type                                : Progressive
Bits/(Pixel*Frame)                       : 0.099
Stream size                              : 274 MiB (79%)
Writing library                          : x264 core 112
Language                                 : English
Default                                  : Yes
Forced                                   : No
Color primaries                          : BT.709
Transfer characteristics                 : BT.709
Matrix coefficients                      : BT.709

Audio

ID                                       : 2
Format                                   : MPEG Audio
Format version                           : Version 2
Format profile                           : Layer 3
Codec ID                                 : A_MPEG/L3
Codec ID/Hint                            : MP3
Duration                                 : 1h 34mn
Bit rate mode                            : Constant
Bit rate                                 : 48.0 Kbps
Channel(s)                               : 2 channels
Sampling rate                            : 16.0 KHz
Compression mode                         : Lossy
Stream size                              : 32.3 MiB (9%)
Title                                    : Hindi Track
Writing library                          : LAMELAME_MAJOR_VERSI
Language                                 : Hindi
Default                                  : Yes
Forced                                   : No

English Audio

ID                                       : 3
Format                                   : MPEG Audio
Format version                           : Version 2
Format profile                           : Layer 3
Codec ID                                 : A_MPEG/L3
Codec ID/Hint                            : MP3
Duration                                 : 1h 34mn
Bit rate mode                            : Constant
Bit rate                                 : 48.0 Kbps
Channel(s)                               : 2 channels
Sampling rate                            : 16.0 KHz
Compression mode                         : Lossy
Stream size                              : 32.3 MiB (9%)
Title                                    : English Track
Writing library                          : LAMELAME_MAJOR_VERSI
Language                                 : English
Default                                  : No
Forced                                   : No

Subtile


ID                                       : 3
Format                                   : UTF-8
Codec ID                                 : S_TEXT/UTF8
Codec ID/Info                            : UTF-8 Plain Text
Title                                    : Ganool
Language                                 : English
Default                                  : No
Forced                                   : No



 
http://www.imdb.com/title/tt1245526
 
http://s19.postimage.org/qiqafxzo3/red_cover.png

